<svg preserveAspectRatio="none" overflow="visible" style="display: block;" width="720" height="376" viewBox="0 0 720 376" fill="none" xmlns="http://www.w3.org/2000/svg">
<g id="Group 1">
<path id="Vector 13" d="M478.367 200.655L474.743 205.23L472.327 207.19V209.805V211.765H469.911L468.703 209.805L466.892 208.497L465.684 209.805V211.112V214.38L464.476 216.34L462.06 218.955L461.456 220.915V222.222L459.644 220.915L458.436 218.955L457.832 215.687L457.228 215.033L458.436 213.726L460.852 209.805L459.644 207.19L458.436 203.269L457.832 200.001L456.02 198.694L454.812 198.04H452.397L449.377 198.694L447.565 198.04L448.773 195.426L449.981 192.158L451.189 189.544L453.001 188.89H456.02L457.832 187.583L463.268 188.237L466.892 189.544L469.911 190.198L472.327 186.276V184.969V183.662" stroke="#2A842D"/>
<path id="Vector 14" d="M462.39 222.222L467.721 222.865L468.906 223.508L470.683 225.436L474.237 228.649L476.606 229.935L475.422 233.148V234.433H472.46H468.314L465.944 233.791V240.217L467.129 247.929L468.314 250.5L462.39 255.641V256.927H457.059H451.136L449.951 260.783L448.174 265.924L446.989 268.495V272.994L445.805 276.85L448.174 283.919L451.136 292.274L453.505 297.415V300.629V305.77L452.32 309.626V312.197L453.505 313.482L454.69 315.41V317.338V320.551V322.48L453.505 325.05V329.549V337.904L454.69 339.189L453.505 341.117V343.688L452.32 345.616" stroke="#2A842D"/>
<path id="Vector 15" d="M447.235 271.387H434.166L428.226 273.958L422.286 278.456L416.345 281.67H412.187H410.405V282.955L408.623 281.67L404.465 280.384V273.958H402.089V271.387L400.901 270.102V268.816L399.712 266.246L393.178 264.318H389.02H387.238H383.08L382.486 264.96L380.109 264.318L379.515 263.032H374.169L372.387 262.389L370.011 259.176V256.605L369.417 254.677L368.823 250.821L367.635 248.251H365.259L363.476 247.608H361.1H359.318V242.467L357.536 240.539L356.348 239.253L355.16 237.325V234.755L356.348 232.827V231.541L358.13 230.256L359.912 229.613L362.882 228.328H365.259L367.635 227.042L368.823 226.4L369.417 223.186L370.605 214.832V212.904H377.139L378.327 210.333L378.921 207.762L380.109 204.549L381.297 200.693L384.268 200.05L385.456 198.765H387.238L388.426 198.122L390.802 199.407L394.96 201.336L397.336 201.978L399.712 197.479L402.089 194.266L403.871 192.338H405.653L407.435 193.623L410.405 195.551L415.157 198.122H417.533H421.692L424.068 197.479H428.226L428.82 198.122L429.414 198.765H431.196L432.384 200.05L434.76 201.978L436.543 203.906H440.107L444.859 199.407L447.235 198.765H449.017H450.205" stroke="#2A842D"/>
<path id="Vector 16" d="M367.48 170.166V173.44L368.067 174.749L368.654 176.714L370.414 178.678L371.587 180.643L372.761 181.952V183.917H370.414L369.827 185.226L369.24 187.845L369.827 191.119L372.174 195.048L372.761 197.667L373.347 199.632L375.107 201.596L378.041 202.906L379.214 204.215L379.801 204.87" stroke="#2A842D"/>
<path id="Vector 17" d="M358.363 173.701L355.97 174.343L354.174 176.271H346.395L345.198 173.701L342.206 172.415H338.615L337.418 170.487L335.623 169.202H333.827H333.229L332.631 170.487L333.827 172.415L335.623 174.343V176.271V178.199H333.827V181.413L332.631 183.341V185.269H330.237H326.048L323.654 183.341L320.064 183.983L317.67 185.269L315.874 186.554H314.079L312.882 187.839L312.284 188.482H305.701L305.103 191.053L306.3 192.338L308.095 194.909L309.292 198.122L308.095 200.05V204.549L309.292 209.69L306.3 212.904L305.103 215.474L303.307 217.402L302.709 219.973L305.103 223.186V226.4L303.307 227.042V230.898L302.709 231.541V234.112L301.512 236.04L299.717 237.968V252.107L302.709 255.32V256.605L303.906 257.248H306.3L311.087 266.245V270.102L311.685 271.387H312.284V273.958L311.685 280.384L312.284 282.955V285.526V286.811H314.678L318.268 284.883L319.465 284.24H322.457V282.955H330.835L332.032 281.67H337.418L339.213 280.384H339.812L339.213 277.171V275.243L342.804 272.672L344.001 268.816L345.198 266.245L346.993 263.032L348.19 261.104V258.533L352.977 255.32L356.568 253.392L359.56 246.965" stroke="#2A842D"/>
<path id="Vector 18" d="M312.917 287.151L309.931 289.737L307.543 290.384L305.154 292.969L301.571 294.262L299.182 294.909H294.405H293.21L290.225 296.202H286.044H284.253L282.461 294.909H280.073L278.878 294.262L275.892 290.384L274.698 287.151L272.907 285.858L271.712 284.565L266.338 283.919L265.74 284.565H263.949L262.755 285.858V291.676L263.352 294.262V298.141V302.666V307.838V310.424L263.949 313.009L264.546 316.242V320.12V322.706L265.74 323.999V328.524V333.049L266.338 334.989V337.575V338.868" stroke="#2A842D"/>
<path id="Vector 19" d="M312.037 113.447L309.644 114.078L308.447 115.34L306.651 114.709L304.258 114.078L301.864 111.554L299.47 110.292L295.88 109.03L294.084 108.399L293.486 107.137L291.691 105.875L290.494 104.613H289.895L289.297 105.244V106.506L288.1 107.137V109.03H286.305L285.108 110.292H283.911V111.554L285.108 112.816H286.903H287.502V114.078L286.903 115.34L285.108 117.233L283.911 119.757L282.116 122.281V129.222L280.32 130.484V131.115H277.328V133.639L276.131 134.27L274.934 133.639H273.139L271.942 131.746L270.147 131.115H269.549L267.753 131.746V135.532L266.556 136.163L265.958 136.793H264.163V138.055L261.17 138.686H259.375L256.383 139.317L255.186 138.055L253.391 135.532V133.008L252.792 131.115L252.194 129.853V125.436L252.792 123.543L253.989 122.281L255.186 120.388V119.126L254.588 117.864L253.989 117.233V115.971" stroke="#2A842D"/>
<path id="Vector 20" d="M253.954 116.181L252.774 115.55L253.364 108.609L252.774 107.347L252.184 106.716L250.413 107.347L248.643 108.609L247.462 109.871L246.282 111.133L242.741 112.395L242.151 113.657H239.79L237.43 112.395L235.659 111.133H231.528L230.348 112.395L227.987 113.026L227.397 113.657L226.217 112.395L225.037 109.871L223.856 108.609L219.135 104.823H207.922L207.332 103.561L206.152 102.299L204.971 99.7755L204.381 98.5136L203.791 94.0966H204.971L207.332 91.5727L207.922 89.6797L208.512 87.1558V85.2628L207.332 84.0008V81.4769" stroke="#2A842D"/>
<path id="Vector 21" d="M173.655 79.5488L171.871 81.4769V82.1195V87.2609L171.277 88.5463L169.493 89.1889L170.087 90.4743L171.277 93.6877L173.061 95.6157L175.439 98.1864L177.223 101.4V103.328V105.256L176.628 106.541L175.439 108.469L173.655 111.04L173.061 112.968L174.845 114.253V114.896L175.439 117.467L174.845 119.395L174.25 120.68L173.061 120.037L171.277 119.395L170.682 118.109H170.087L168.898 120.037L166.52 121.323L164.141 123.251H162.357H158.195L157.006 123.893H154.627L154.033 123.251H151.654L148.681 122.608L147.492 121.965H146.897L146.302 121.323L145.113 120.037H143.329H142.14L139.761 121.965L138.572 123.251L135.599 124.536L134.41 125.179L133.815 128.392L132.626 129.677V130.963H132.031H131.437L129.653 133.533L128.464 134.819L129.058 136.747L129.653 138.675V139.96L129.058 143.174L127.274 145.744L124.896 148.315L123.707 150.243V153.456V155.384L125.49 156.027L126.085 157.955H128.464L130.247 159.883L132.626 160.526H135.004L136.788 159.24L138.572 158.598H141.545L142.14 157.312H143.924L145.113 158.598L146.302 159.24L147.492 160.526H154.033L155.816 159.883H159.384H161.763L163.547 161.811L165.33 164.382H172.466H173.061L174.25 165.667L175.439 166.31L177.223 167.595L179.602 168.238L183.764 170.808L185.548 172.094L187.332 172.737L189.71 174.665L190.899 175.307L192.089 175.95V177.235L191.494 177.878L189.71 181.091L189.116 183.019L190.899 185.59L192.683 186.875L194.467 187.518L195.062 186.233H198.035H199.224L200.272 187.518H201.603L209.333 197.801L210.522 198.443L212.901 199.086L214.685 198.443L215.279 196.515L215.874 195.23H217.063L218.252 196.515L218.847 197.801H219.442H220.631H221.225L221.82 197.158L223.009 194.587L224.793 190.731L225.388 190.089V184.305L226.577 182.377L227.172 181.091V179.806L228.361 177.878L229.55 175.95H233.118L234.902 175.307L236.091 172.737V171.451V167.595L239.064 163.096L236.686 161.168H234.902L234.307 160.526V154.099V152.171H233.118V150.243L233.713 148.315L236.091 146.387L237.28 145.744L239.064 144.459H243.227L245.011 143.816L246.794 141.246H250.362V139.96L252.146 138.675L253.93 138.032H255.714" stroke="#2A842D"/>
<path id="Vector 22" d="M238.113 162.454L241.664 158.598H243.44H246.399L247.583 159.24V161.811L248.175 164.382L250.543 166.31H251.726L254.094 165.024H254.686L255.278 166.31L257.053 167.595H257.645L259.421 165.667L262.38 164.382L263.564 162.454L264.748 160.526H267.707V161.811V164.382L268.891 165.667V166.952L270.667 168.88V171.451L271.851 172.094V175.95L272.443 177.878V180.449V181.734L275.402 179.806L277.178 179.163L279.545 177.878L281.321 175.95L283.097 175.307H283.688L284.28 176.593V179.163L283.097 179.806V180.449L283.688 181.734L284.872 183.019L287.24 186.233L289.607 186.875L299.67 187.518L301.445 188.161L303.221 190.731L304.997 191.374" stroke="#2A842D"/>
<path id="Vector 23" d="M221.392 198.122L221.987 200.05L223.773 202.621V205.192V207.762L224.964 209.69H226.75L229.727 213.546L232.108 214.832L233.299 216.76L234.489 218.045L236.275 219.973L238.061 222.544L239.252 224.472L240.443 227.042L241.633 230.256V231.541V234.755V236.683L241.038 237.325V239.253V242.467V244.395V246.323L240.443 247.608L239.847 249.536L238.657 250.821L236.275 253.392L235.085 255.32L234.489 256.605V260.462V264.96V269.459V270.744L233.299 272.03L231.513 273.315L229.131 274.6V300.95L230.322 302.878V306.091H229.131V309.947L226.75 311.233L226.155 313.803H225.559L224.964 316.374V322.158L225.559 322.801L226.155 326.657V329.228L227.345 331.156V332.441L226.155 333.084V335.012" stroke="#2A842D"/>
<path id="Vector 24" d="M132.077 160.526V162.46V163.75L130.916 165.04L130.335 166.33L130.916 166.975L132.077 167.619L133.818 170.844L134.979 173.424L135.56 174.713H138.462H139.623L140.203 176.003L141.945 179.228L142.525 181.162L143.686 183.097V185.676L145.427 188.256L146.588 190.191V190.836L145.427 192.77L143.686 193.415L141.945 194.06H140.784L139.623 194.705L137.881 195.995L136.14 197.284H134.399L133.818 198.574H132.077L130.916 197.284H129.174L129.755 203.088L130.335 205.023L132.077 206.958V209.537L129.174 214.052L128.594 216.631V219.211H127.433V221.145L126.853 222.435V225.015L125.692 226.304H124.531L123.95 227.594L120.468 230.819L119.307 232.108L119.887 233.398L121.048 235.333L122.209 237.268V238.557V254.035" stroke="#2A842D"/>
<path id="Vector 25" d="M50.6631 76.6568L53.0278 78.5848L54.2102 82.4409L54.8014 85.6542V88.8676L56.5749 90.7956L57.7572 93.3663L58.3484 94.6517L58.9396 95.2943L60.122 95.937H61.8955L64.2602 93.3663L65.4426 94.009L66.0337 95.937L65.4426 97.2223V100.436L66.6249 103.006L69.5808 104.292V106.862L70.7632 108.148L71.9455 109.433L73.1279 111.361L74.9014 113.932L75.4926 117.145L77.2661 117.788L79.0396 119.716H80.222L81.4044 121.001L83.7691 122.287L85.5426 120.359L86.725 117.788L87.9073 117.145H89.0897H93.8191L94.4103 122.287L95.5926 122.929H99.1397L99.7309 124.857L100.913 125.5V126.785L102.096 127.428H103.278L105.051 126.785H108.007L112.737 129.999L113.919 130.641L115.101 129.356L116.284 127.428L118.057 126.785H119.24L120.422 128.071L122.196 130.641L124.56 133.212L125.152 134.497H128.107" stroke="#2A842D"/>
<path id="Vector 26" d="M80.441 120.037V123.924L79.254 124.572H75.6928L72.7252 127.811L68.5706 128.459V137.528V139.472L67.3835 140.12L68.5706 142.063V144.006V145.302L70.9447 147.893L72.7252 150.485L73.3188 153.724L73.9123 155.667L75.0993 156.963V159.554L75.6928 160.85L76.8799 161.497L77.4734 164.089L78.6604 165.384V167.328L76.8799 169.271L77.4734 171.215L78.6604 171.862L79.254 174.454L81.0345 175.102L82.8151 176.397V179.636L82.2216 181.58V183.523L81.0345 184.171V185.467L82.8151 187.41L84.5957 188.706L86.3762 190.001L88.1568 191.945V193.888L90.5309 194.536L92.3114 195.184V195.832L92.905 197.127L92.3114 197.775L90.5309 199.071L89.3438 197.775L88.1568 198.127L87.5633 199.071L86.9697 199.718L85.1892 199.071L84.5957 197.775L83.4086 199.071L82.8151 200.366L82.2216 201.014H81.6281L80.441 199.718L77.4734 196.479H75.6928H73.9123H73.3188" stroke="#2A842D"/>
<path id="Vector 10" d="M466.046 170.643L467.827 173.89L470.201 178.436L470.794 179.735L472.575 183.632V184.93L473.762 186.229V187.528L474.949 188.178H477.323L478.51 189.476L477.916 190.775L477.323 192.074V194.023V196.62L477.916 200.517L479.103 203.115V205.063L480.884 208.31L485.039 212.856H486.819H489.193L493.348 213.506L494.535 212.207L496.909 210.908L499.877 208.96V207.011L500.47 197.919H501.657L502.844 198.569L506.999 203.764L508.779 207.011L509.967 210.258L512.341 214.155L514.715 216.753L517.682 217.402H520.056L522.43 216.103L524.805 212.856L525.992 212.207L526.585 208.96L528.366 205.712L527.772 193.373L530.146 190.126L533.707 181.683L532.52 179.735V176.488L534.894 173.89L537.269 171.292L537.862 170.643L542.017 169.344H544.391V168.694L545.578 162.2L546.171 161.551L549.732 157.654H552.107L555.074 156.355L557.448 155.706H559.822L560.416 158.303V159.602H562.196H564.571H565.758L566.945 158.303H568.132L569.319 158.953L570.506 160.252L571.693 161.551H575.847L577.628 163.499H581.189H582.376H583.563L591.279 172.591H592.466L594.84 173.24L597.214 175.189L597.808 177.137V179.085L596.621 181.034V183.632V187.528L598.401 188.827L600.775 190.126L601.962 192.074L604.93 194.672L606.711 197.919L608.491 200.517H610.865H612.052L613.833 199.218L615.613 198.569H617.987L622.736 197.919H623.329H627.484H629.264L631.638 196.62H634.606H636.98L637.574 197.919H638.761L639.948 198.569L641.135 200.517L643.509 203.764L644.696 206.362V208.96" stroke="#2A842D"/>
<path id="Vector 11" d="M545.25 96.901L547.045 102.042L547.644 105.256V107.184L548.242 109.112V112.325V114.896L548.841 116.824L549.439 118.109L551.234 121.965L551.833 124.536L553.628 126.464V129.035L556.022 130.963L556.62 131.605V135.461L556.022 136.747L554.825 137.389V139.96L555.423 141.888L556.022 143.174V144.459L556.62 147.03L557.817 148.958L559.014 150.243L560.211 152.171V154.099V155.384L559.612 156.67" stroke="#2A842D"/>
<path id="Vector 12" d="M525.89 211.618L530.07 213.562L531.862 214.21L533.653 214.858L536.042 218.746L537.236 222.633L538.431 224.577L539.028 227.817L538.431 230.409V231.704L537.236 233.648L537.833 235.592L538.431 236.888L540.222 238.832L541.416 240.128V242.072L542.014 243.367L542.611 245.959V247.903L542.014 249.847L540.819 251.143" stroke="#2A842D"/>
<path id="Vector 7" d="M333.047 63.1607L330.681 65.7389L328.906 67.028L327.131 68.317V69.6061L326.539 70.8952L325.356 72.8288L324.765 74.1179L322.99 75.407L322.398 76.6961V77.9852L323.581 78.6297L327.723 79.2742L329.498 80.5633L330.681 81.2079L332.456 82.497L334.231 84.4306L337.189 85.7197L338.372 87.0087V87.6533L337.78 88.2978L335.414 89.5869L334.822 90.2315H332.456L331.272 88.9424H329.498V90.2315V92.8096L328.906 94.0987L325.948 97.966L322.99 98.6105H321.215V99.8996L319.44 101.189L315.89 103.767H313.524L312.932 103.122L312.34 105.056L311.749 105.7V108.923L311.157 110.857L312.34 114.08H312.932L313.524 115.369L315.298 116.013L317.665 117.302H319.44L320.623 117.947L321.806 119.236L325.948 125.037V127.615V128.259L327.723 130.193V134.705L328.314 135.994V137.283L331.864 140.506H333.639H334.822L337.78 146.307V148.885V150.174L338.372 151.463L339.555 152.107L340.739 153.397L343.105 157.264L345.472 158.553L349.021 159.842L350.205 161.131V163.709L355.529 171.444L357.304 173.377L358.487 174.022H361.446H363.812L364.995 172.733L367.954 170.799L368.545 168.221L367.954 166.932L367.362 166.287H366.179L369.137 163.065L370.912 161.131L372.095 161.776L373.278 162.42L375.053 163.065L376.236 162.42L376.828 161.131L378.011 159.842L380.969 159.197L381.561 158.553V155.975V154.686L379.786 154.041L380.378 150.174L379.786 148.885H377.42L375.645 145.662H373.87L372.095 145.018L371.503 144.373V140.506L375.645 134.06L376.828 133.416V125.681L376.236 124.392L375.053 123.103H374.461L375.053 122.459L376.828 120.525L377.42 119.236L376.828 116.658V115.369L375.645 114.724H373.87L373.278 116.013L371.503 116.658L370.912 116.013V113.435V108.923L372.687 106.345H373.87L375.645 106.99H377.42L378.011 101.833L378.603 99.8996L380.969 91.5205V85.7197L379.194 83.1415L378.011 81.8524L377.42 79.9188L376.236 77.9852L377.42 76.0515L378.011 74.7625L376.828 73.4734L376.236 68.317V65.7389" stroke="#2A842D"/>
<path id="Vector 8" d="M377.161 126.534H378.939L379.531 125.277H381.309H382.494H383.087L384.272 126.534L385.457 127.791V128.42L386.642 127.791H387.827L388.42 126.534H389.012L390.198 127.163H390.79L391.975 127.791H392.568H393.16L394.938 125.277L396.123 124.019V122.133V120.247V118.989H397.308L398.493 117.732H400.864H401.456L402.049 117.103L403.827 116.475H408.567L409.752 117.103V118.989V120.247V122.133L409.16 122.762H412.123H413.9L413.308 124.019L418.048 123.39H419.826L420.418 124.019L421.604 125.277L421.011 126.534V127.791V129.049L422.789 129.677L425.159 129.049H426.344L427.529 127.791L428.714 125.905L429.307 124.648H443.529L444.121 124.019L446.491 123.39L447.084 122.133V120.247L447.676 118.989L448.269 117.103V116.475V115.217L447.084 114.589L445.899 112.702L445.306 111.445L446.491 110.816L447.676 110.188L449.454 109.559H451.232L452.417 108.302H453.602H454.787L455.38 108.93L457.158 110.816H458.343L458.935 110.188L460.713 109.559L461.898 108.93L465.453 106.415L466.046 107.044V100.757" stroke="#2A842D"/>
<path id="Vector 1" d="M385.962 375.5L391.309 369.051L401.408 362.602L407.943 360.022L414.478 356.153L419.231 353.573L422.796 350.993L433.489 348.414L440.025 344.544L442.401 343.899L448.342 344.544L451.906 345.834L455.471 344.544L466.165 343.899L471.512 345.834L473.888 344.544L477.453 343.899L482.205 344.544H486.364L488.146 343.899L492.899 338.74L501.216 338.095L507.751 332.291V329.066L511.316 327.776L513.692 323.907L516.069 320.037L517.851 316.813L520.227 313.588L523.198 311.009L527.357 309.719L530.327 307.784H533.298L534.486 304.56L538.05 300.045L541.021 299.4L542.803 296.176L541.021 292.306L538.05 289.727L534.486 288.437L528.545 277.473V273.604L529.733 269.734L530.921 267.8L531.515 263.285L533.298 261.35L533.892 259.416L535.08 257.481L535.674 255.546L536.268 254.901L537.456 253.611L539.239 251.677L540.427 251.032H542.803H545.179H546.962L551.715 251.677L558.25 258.126L561.22 258.771H563.002L564.785 259.416H566.567L568.349 260.061L570.131 260.705L573.696 261.35H575.478L577.855 262.64L584.39 258.126L587.36 255.546L597.46 244.583L598.054 241.358L598.648 240.713L601.024 238.778L603.995 238.134L606.371 238.778L608.154 239.423L609.342 240.068H611.718L615.283 239.423H617.659L621.818 238.778L623.889 238.134H624.788L627.165 235.554L631.323 230.395L636.076 229.105L637.264 227.815L637.858 226.525V223.301L637.264 222.011L637.858 220.076V218.786L638.452 217.496L639.641 216.207L644.393 208.468H646.77L648.552 207.178L649.74 206.533L650.929 205.243H651.523L652.711 205.888H662.216V202.018L662.81 201.374L663.405 200.084V198.149H665.187H666.969L667.563 198.794L671.722 200.084L673.504 198.149L675.286 197.504L676.475 195.569L678.851 194.279L680.633 192.345L681.821 191.7L683.604 191.055H686.574H688.357H689.545L690.733 190.41H691.327H692.515L694.297 191.055L695.739 190.41" stroke="#2A842D"/>
<path id="Vector 2" d="M695.749 191.644L698.124 190.999L701.093 192.935L705.249 194.226L706.437 195.516L708.218 197.453V199.389L707.625 200.034L707.031 200.679V201.97V203.261L708.218 203.906H709.406L710.874 203.261L711.781 201.325L714.156 198.098L719.5 192.29V190.999L717.125 186.481V184.545V183.255V182.609V181.318L718.312 179.382V174.865L715.937 172.929L714.156 171.892L712.375 171.638L711.781 170.993L709.406 170.347H708.218L706.437 167.766V164.539L705.249 163.894H704.062V164.539H702.874L702.281 163.894V158.731L696.937 155.504H695.749L688.03 148.405V147.76H682.092V146.469L680.311 145.823L676.155 146.469L674.373 145.823L673.186 146.469L662.498 159.376H661.311L660.123 158.085L659.529 157.44L655.373 154.213L652.998 152.277L652.404 151.632L650.623 150.341L648.841 150.986L645.873 150.341H645.279L644.296 150.986L643.498 152.277H642.904L641.716 152.922H640.529H639.935L638.154 151.632L635.779 150.986V152.922L634.591 153.568L631.028 158.085H629.841H628.653L628.06 156.795L621.528 148.405L622.122 144.533H621.528L620.934 143.242V142.597V141.951V141.306V140.661L627.466 138.725L628.06 128.399L631.028 123.881L634.591 118.718L633.404 116.782V114.846L634.591 113.555L635.185 111.619L636.372 109.038V107.102L637.56 106.456L638.747 101.939L645.279 88.3862L648.248 81.9326L647.654 79.9965L646.466 79.3512L642.904 78.0604L640.529 77.4151H639.341L638.747 76.1243L637.56 75.479H636.372H634.591H633.997L631.622 76.1243L626.872 79.9965L624.497 80.6419L622.716 79.9965L619.153 80.6419L615.591 77.4151L606.09 68.38L604.903 67.7346L603.121 67.0893H600.746H598.371H596.59H595.996L594.809 65.7985H592.434L591.246 66.4439L584.715 72.8975H584.121H582.34H580.885L571.652 81.2872L571.058 81.9326L569.871 82.578L568.683 83.8687L568.089 85.1594L567.496 86.4501L566.902 87.7409V89.677V90.3223H565.12L560.964 92.9038L559.183 94.1945H557.995H556.808L556.214 92.9038H555.026L553.245 92.2584L552.451 92.9038H550.87L550.276 93.5491L548.495 94.8399H547.901L545.526 96.7759L543.745 96.1306L542.557 97.4213H538.995H538.401L536.62 96.7759H534.838L534.244 97.4213L533.651 98.0667H532.76L531.869 98.712L528.306 99.3574L524.744 100.003L523.556 101.293L518.806 104.52L516.431 105.811L515.837 107.102H513.462H511.681L510.727 105.811L508.712 105.166L506.337 104.52H504.556L503.962 105.166L501.587 106.456H499.806L498.618 105.811H497.431H495.649V105.166H495.055L494.462 104.52L493.274 103.875H492.087L487.337 103.23L486.149 102.584L484.961 100.648H483.18L481.993 99.3574H480.211L469.523 98.712V100.003H466.555L465.961 99.3574L458.242 93.5491L452.898 88.3862L452.304 87.0955L452.898 83.2233V78.7058L451.71 77.4151H449.929H448.148H447.554L446.367 76.7697H443.991L438.648 76.1243H436.866L435.085 75.479L428.553 66.4439L427.366 65.7985L426.178 65.1532L424.397 64.5078H422.022L417.272 63.8625L416.084 64.5078L415.715 65.1532L414.303 65.7985H413.116L408.365 61.281L403.022 60.6356H400.647L398.271 59.9903L396.49 59.3449H394.115H391.74L388.177 62.5717H385.802L384.021 61.9264H382.833L382.24 63.2171L381.052 63.8625H378.677L378.083 64.5078L377.49 65.1532H372.146L367.395 70.3161L366.208 70.9614H365.02H363.833L362.052 70.3161L360.864 69.6707H359.083L357.895 70.3161L357.301 71.6068L352.551 70.3161L350.77 69.6707H348.395L347.207 67.0893L346.614 65.7985L344.832 65.1532H343.051H339.488H338.301L337.707 63.8625L336.52 63.2171H335.926L333.551 61.9264L332.957 62.5717L330.582 57.4088L328.207 56.7635H326.425L325.238 54.8274V53.5367L325.832 52.8913L326.425 52.2459V51.6006V50.9552V49.6645" stroke="#2A842D"/>
<path id="Vector 3" d="M324.945 48.0256L326.118 48.7004L323.772 47.3508L322.598 46.0012L323.185 45.3264L324.358 43.9768V41.9524" stroke="#2A842D"/>
<path id="Vector 4" d="M324.358 42.5285V40.5887L323.167 39.9421L322.572 38.6489V36.7092L321.976 35.416V33.4762V32.183L323.167 31.5364L323.763 30.2432V28.9501L323.167 28.3035H321.976L320.19 27.0103L318.403 26.3637H317.213H315.426L314.831 25.0705H313.044L311.853 24.4239H311.258L310.067 23.7773H307.685H306.494V24.4239H304.707H303.516L302.921 23.7773L301.73 22.4841L300.539 21.8375L298.157 21.191L296.371 19.8978H295.18L293.393 18.6046H291.011V17.3114L290.416 16.6648H289.225L288.629 15.3716L287.438 14.725H286.247H284.461H273.742L273.147 14.0784L271.956 13.4318L270.169 11.4921L267.787 10.1989L267.192 9.55229V8.25911H266.001L263.619 8.9057L262.428 7.61251H259.451L258.26 5.67274L255.282 5.02615L252.305 3.08637L251.114 2.43978L250.518 0.5H248.732V2.43978V3.73296L247.541 5.02615L246.946 6.31933L246.35 7.61251L245.755 8.9057V10.1989V10.8455L244.564 11.4921L242.777 12.1387L242.182 14.0784H239.204H238.609L235.631 14.725V16.6648L235.036 18.6046V21.191V23.7773H232.654H230.272V24.4239L229.677 25.7171V26.3637V28.9501H228.486V30.8898L227.295 31.5364V32.8296L227.89 34.1228H227.295V35.416L226.104 36.0626V37.3558V38.6489L224.913 39.2955V40.5887V40.9696L225.508 42.5285L227.295 43.1751L227.89 43.8217L228.486 45.1149L229.081 46.408L228.486 47.0546V48.3478V48.9944V50.2876L229.677 52.2274L230.272 53.5206" stroke="#2A842D"/>
<path id="Vector 5" d="M230.633 53.5206L231.233 54.8191L232.433 56.1176H233.033H235.433L236.633 56.7668L236.033 58.0653L237.233 58.7145V60.013L236.633 61.3114L235.433 62.6099V64.5576V67.8037L233.633 68.453V69.7514V71.0499L233.033 72.9976H231.833V74.296L230.633 74.9453L228.833 75.5945L228.233 76.893L227.033 78.1914H224.632V77.5422H223.432L222.232 78.1914L221.632 79.4899L217.432 84.0345L215.632 84.6838H213.832L212.632 85.333L210.832 84.0345L209.632 82.0868L208.432 80.7884H207.231L206.031 79.4899L203.031 78.8407H200.631H199.431L198.831 80.1391V81.4376H197.031V80.1391V78.8407L196.431 78.1914H194.631L193.431 78.8407V80.1391H192.831L192.231 79.4899L191.631 78.8407L189.83 77.5422L188.63 76.893H186.83H186.23H185.63L184.43 77.5422" stroke="#2A842D"/>
<path id="Vector 6" d="M185.066 77.067L183.879 78.3561L182.692 77.067V75.7779L182.098 75.1333H180.318L179.724 76.4224L178.537 78.3561H176.164L174.977 79.6452L173.196 79.0007L172.603 77.7116H170.229H164.294V76.4224L162.514 74.4887L161.327 73.8442H158.953H157.173L156.58 74.4887L155.393 75.1333H154.799L153.612 74.4887L153.019 73.1996L152.425 71.2659H151.238L150.645 69.9768H149.458L148.271 68.6877L148.865 60.9529L147.678 57.7301L147.084 57.0855L145.304 55.7964L143.523 55.1518L139.963 55.7964L131.061 55.1518L128.687 54.5073H126.67H125.126L124.533 55.7964L118.598 55.1518L118.005 53.8627L117.411 52.5736V49.9953V48.7062L116.224 46.7725L115.038 47.4171H113.257L112.664 48.7062V49.9953L112.07 50.6399L110.883 51.929L109.696 51.2844L108.509 49.9953L105.542 47.4171H103.168H101.981V49.3508L101.388 49.9953L100.201 50.6399L99.6076 51.929H97.8272H96.6403L94.8599 50.6399L92.745 49.9953H91.5751L87.7385 53.2181L86.5516 54.5073V55.7964L85.3646 56.441L84.1777 57.7301H82.3973L81.8039 59.0192L80.0235 59.6638H78.5006L77.6495 60.3083H74.0888L72.3084 61.5975L71.7149 62.8866H71.1215L69.9346 64.8203L69.3411 65.4648L68.7476 66.1094L67.5607 67.3985L65.7804 68.0431H64L61.0327 68.6877H59.2523H58.0654V69.3322L57.4719 69.9768L56.8785 71.2659L54.5046 71.9105L52.1308 72.555L51.5374 73.1996L50.9439 74.4887V76.4224L49.757 77.067V77.7116L44.4158 78.3561H43.2289H42.6355V79.6452V80.2898L42.042 80.9344V81.5789L43.2289 82.8681L44.4158 84.1572V85.4463H43.2289H42.6355V85.6999V86.7354L40.2616 88.0246L39.0747 88.6691H37.8878V90.6028H36.7009L36.1074 89.9583L34.9205 89.3137L34.3271 88.6691L33.1401 89.3137L32.5467 89.9583L33.1401 91.2474L33.7336 91.892V93.1811L30.1728 95.1148L28.3925 93.8256L27.2056 93.1811V92.5365H25.4252L24.8317 93.8256V95.1148V95.7593H21.8644L21.271 94.4702H19.4906L17.1168 93.8256H14.7429H14.1495L13.556 94.4702L12.3691 95.1148L11.4068 95.7593L9.40188 98.3376L8.80842 98.9822V100.916H9.99534V102.205L8.21496 103.494L6.43459 104.139L5.24767 104.783H4.06075H3.46729L2.87383 105.428V106.717V108.651L2.28038 109.94L2.87383 110.584H4.06075V111.873L2.87383 113.163H1.09346L0.5 115.096V116.385L2.28038 117.03V118.319L3.46729 118.964H4.65421L6.43459 119.608H6.72756L7.02804 120.897V121.874L6.43459 124.765V127.343L5.24767 127.988H7.02804L9.40188 127.343L9.99534 128.632H12.3691V130.566H13.556L14.7429 131.855V132.499H16.5234H17.7103V133.144V135.402L19.4906 135.178L18.8972 138.945L20.0841 139.59L21.271 141.523H23.0514L24.2383 142.168L26.0187 142.812L27.2056 143.457L28.3926 144.746L28.986 146.68V147.969V148.614V150.547L30.7664 149.903L31.9533 149.258L34.3271 148.614L36.1075 147.969L36.701 146.68L37.2944 146.035L39.0748 145.391H39.6683H40.2617L42.0421 146.035V147.969L42.6356 149.903L43.229 150.547H43.8225L44.4159 151.836L46.7898 153.77L48.5701 153.126H50.3505L50.944 151.836L52.7244 152.481L52.4889 153.126L52.7244 154.415L53.9113 156.993L56.8786 158.282L57.472 159.571L58.0655 162.149L58.6589 163.439L60.4393 164.728L61.0328 166.661V167.95V171.173L62.2197 173.107L63.4066 173.752V176.33L65.187 177.619L66.3739 179.553L66.9674 180.842V182.775H69.9346L70.5281 184.709L71.1216 185.998L72.3085 188.577V189.866L74.0889 191.155V192.444V200.823L73.4954 202.112L72.9019 204.046V204.691V205.335L71.1216 206.624V207.913L71.715 208.558V210.492V211.136L72.3085 211.781L73.4954 215.004V217.582L71.1216 220.16L68.1543 224.672L66.3739 227.895V231.118V232.407L65.187 233.696V236.919L66.3739 237.563L67.5608 238.208L69.3412 242.72L69.9346 244.654L70.5281 245.298L71.715 246.587H75.2758H77.0562V248.521L78.8365 249.165L80.6169 250.455L82.3973 249.81L83.5842 247.876L84.7711 249.165V251.099H86.5515H98.4207L99.0141 253.677L103.762 253.033H105.542L110.883 254.322L114.444 253.677H120.379L126.907 254.322L129.874 254.967L132.841 256.256L134.028 257.545L135.809 260.123L138.776 260.768L140.556 262.057L142.337 262.701L143.524 263.99L144.117 265.924L145.897 267.858L149.458 270.436L161.327 278.815H164.295L168.449 279.46L170.823 278.815H172.01V280.105L171.416 281.394L170.823 283.327L170.229 284.616V287.195L173.79 289.773L174.977 290.418L175.57 294.285L176.757 297.508L178.538 300.731L180.911 306.532L182.098 309.754V312.333V314.911L183.879 316.2L185.659 319.423L189.22 323.935L190.407 327.158L191.594 329.736V331.67L192.187 333.603L192.781 334.892H196.341L198.122 334.248L202.276 333.603H203.463V334.248H206.43L209.397 333.603H212.958H214.145H218.299L220.673 334.892H223.64H226.608H228.388L228.982 336.826L231.949 337.471L234.323 336.826L237.883 338.115H240.851L250.346 338.76H254.5H255.687L256.281 340.049H259.248H263.402L265.776 338.76H267.556H269.93H271.711L274.678 337.471L275.865 338.115H278.832H280.019L281.799 335.537H288.327L290.701 336.182L292.482 338.115H296.636H300.197L301.977 340.049L304.944 340.694L307.912 341.338L314.44 343.272L315.033 345.205L316.22 347.139L318.594 350.362L321.561 353.585H325.122L326.309 354.874L328.683 356.163H332.837H335.211H336.398L338.771 357.452L348.267 363.253H351.827L353.608 364.542L357.762 365.187L358.355 365.832V366.476H363.697L366.07 367.121L370.225 365.832H373.192L374.972 363.898V366.476V370.343L375.566 371.633L376.159 372.277L377.94 372.922H382.094H385.061H385.655V374.211V375.5H386.842" stroke="#2A842D"/>
<path id="Vector 9" d="M466.151 106.541L468.545 107.187L469.144 108.479H469.742L470.939 109.771L472.734 111.708L473.931 113L474.53 114.938V116.875V117.521V118.167L475.128 123.98V125.272L475.726 127.855V129.793V131.085V133.668L475.128 134.314V136.252V138.19V141.419H473.931V143.357L473.333 145.294L469.742 147.878L466.151 150.461L463.758 151.107L463.159 153.045V158.858L461.962 160.15L460.766 161.442L461.364 162.087L462.561 163.379V164.671L463.159 165.963L464.955 171.13" stroke="#2A842D"/>
</g>
</svg>
